# xmcd
#
# Track frame offsets: 
#        150
#        17833
#        34640
#        52576
#        67070
#        78284
#        92880
#        114285
#        132580
#        151358
#        164222
#        180934
#
# Disc length: 2644 seconds
#
# Revision: 4
# Processed by: cddbd v1.5.2PL0 Copyright (c) Steve Scherf et al.
# Submitted via: ExactAudioCopy v0.99pb5
#
DISCID=940a520c
DTITLE=Various Artist - Jazz and '80s
DYEAR=2005
DGENRE=Jazz
TTITLE0=The Cooltrane Quartet - Should I Stay Or Should I Go
TTITLE1=Karen Souza - Do You Really Want To Hurt Me
TTITLE2=Urselle - Purple Rain
TTITLE3=Jamie Lancaster - Boys Don't Cry
TTITLE4=48th St. Collective - Sweet Dreams
TTITLE5=Stella Starlight Trio - Don't You
TTITLE6=James Farrelli - In The Air Tonight
TTITLE7=Dinah Eastwood - Hungry Like The Wolf
TTITLE8=The Cooltrane Quartet - Like A Virgin
TTITLE9=Sawa Kobayashi - Patience
TTITLE10=Michelle Simonal - With Or Without You
TTITLE11=George White Group - Nothing Compares 2 U
EXTD=
EXTT0=
EXTT1=
EXTT2=
EXTT3=
EXTT4=
EXTT5=
EXTT6=
EXTT7=
EXTT8=
EXTT9=
EXTT10=
EXTT11=
PLAYORDER=
